{"title":"Saheb Biwi Aur Gangster Returns (2013) Hindi 1CD CAMRip XviD MP3","uid":8235315,"size":727208410,"categoryP":"video","categoryS":"movies","magnet":"?xt=urn:btih:7c1f6259e24848e17167b383ff34465f7570c81d&amp;dn=Saheb+Biwi+Aur+Gangster+Returns+%282013%29+Hindi+1CD+CAMRip+XviD+MP3&amp;tr=udp%3A%2F%2Ftracker.openbittorrent.com%3A80&amp;tr=udp%3A%2F%2Fopen.demonii.com%3A1337&amp;tr=udp%3A%2F%2Ftracker.coppersurfer.tk%3A6969&amp;tr=udp%3A%2F%2Fexodus.desync.com%3A6969","seeders":1,"leechers":0,"uploader":"HDvideos","files":2,"time":1362826799,"description":"mastitorrents.com\n  &lt;a href=&quot;\nhttp://mastitorrents.com/forums/index.php&quot; rel=&quot;nofollow&quot; target=&quot;_NEW&quot;&gt;\nhttp://mastitorrents.com/forums/index.php&lt;/a&gt;\n  &lt;a href=&quot;\nhttp://thepiratebay.se/user/HDvideos/0/7&quot; rel=&quot;nofollow&quot; target=&quot;_NEW&quot;&gt;\nhttp://thepiratebay.se/user/HDvideos/0/7&lt;/a&gt;\n\nSaheb Biwi Aur Gangster Returns (2013) Hindi 1CD CAMRip XviD MP3\n\nGeneral\nFormat : AVI\nFormat/Info : Audio Video Interleave\nFile size : 694 MiB\nDuration : 1h 48mn\nOverall bit rate : 891 Kbps\nVideo #0\nID : 0\nFormat : MPEG-4 Visual\nFormat profile : Advanced Simple@L5\nFormat settings, BVOP : 2\nFormat settings, QPel : Yes\nFormat settings, GMC : No warppoints\nFormat settings, Matrix : Default (H.263)\nCodec ID : XVID\nCodec ID/Hint : XviD\nDuration : 1h 48mn\nBit rate : 804 Kbps\nWidth : 624 pixels\nHeight : 304 pixels\nFrame rate : 29.970 fps\nColor space : YUV\nChroma subsampling : 4:2:0\nBit depth : 8 bits\nScan type : Progressive\nCompression mode : Lossy\nBits/(Pixel*Frame) : 0.141\nStream size : 626 MiB (90%)\n\nAudio #1\nID : 1\nFormat : MPEG Audio\nFormat version : Version 1\nFormat profile : Layer 3\nMode : Joint stereo\nMode extension : MS Stereo\nCodec ID : 55\nCodec ID/Hint : MP3\nDuration : 1h 48mn\nBit rate mode : Constant\nBit rate : 80.0 Kbps\nChannel(s) : 2 channels\nSampling rate : 32.0 KHz\nCompression mode : Lossy\nStream size : 62.3 MiB (9%)\n\nScreens: &lt;a href=&quot;\nhttp://imageshack.us/a/img805/6149/18869455.png&quot; rel=&quot;nofollow&quot; target=&quot;_NEW&quot;&gt;\nhttp://imageshack.us/a/img805/6149/18869455.png&lt;/a&gt; &lt;a href=&quot;\nhttp://imageshack.us/a/img27/5903/47117471.png&quot; rel=&quot;nofollow&quot; target=&quot;_NEW&quot;&gt;\nhttp://imageshack.us/a/img27/5903/47117471.png&lt;/a&gt; &lt;a href=&quot;\nhttp://imageshack.us/a/img831/107/30421693.png&quot; rel=&quot;nofollow&quot; target=&quot;_NEW&quot;&gt;\nhttp://imageshack.us/a/img831/107/30421693.png&lt;/a&gt; &lt;a href=&quot;\nhttp://imageshack.us/a/img842/9954/69134842.png&quot; rel=&quot;nofollow&quot; target=&quot;_NEW&quot;&gt;\nhttp://imageshack.us/a/img842/9954/69134842.png&lt;/a&gt; &lt;a href=&quot;\nhttp://imageshack.us/a/img829/5230/62892813.png&quot; rel=&quot;nofollow&quot; target=&quot;_NEW&quot;&gt;\nhttp://imageshack.us/a/img829/5230/62892813.png&lt;/a&gt; &lt;a href=&quot;\nhttp://imageshack.us/a/img685/9112/59206803.png&quot; rel=&quot;nofollow&quot; target=&quot;_NEW&quot;&gt;\nhttp://imageshack.us/a/img685/9112/59206803.png&lt;/a&gt; &lt;a href=&quot;\nhttp://imageshack.us/a/img715/9249/46113031.png&quot; rel=&quot;nofollow&quot; target=&quot;_NEW&quot;&gt;\nhttp://imageshack.us/a/img715/9249/46113031.png&lt;/a&gt; &lt;a href=&quot;\nhttp://imageshack.us/a/img843/4460/99430025.png&quot; rel=&quot;nofollow&quot; target=&quot;_NEW&quot;&gt;\nhttp://imageshack.us/a/img843/4460/99430025.png&lt;/a&gt; &lt;a href=&quot;\nhttp://imageshack.us/a/img42/3382/83260618.png&quot; rel=&quot;nofollow&quot; target=&quot;_NEW&quot;&gt;\nhttp://imageshack.us/a/img42/3382/83260618.png&lt;/a&gt;","torrent":{"xt":"urn:btih:7c1f6259e24848e17167b383ff34465f7570c81d","amp;dn":"Saheb+Biwi+Aur+Gangster+Returns+%282013%29+Hindi+1CD+CAMRip+XviD+MP3","amp;tr":["udp%3A%2F%2Ftracker.openbittorrent.com%3A80","udp%3A%2F%2Fopen.demonii.com%3A1337","udp%3A%2F%2Ftracker.coppersurfer.tk%3A6969","udp%3A%2F%2Fexodus.desync.com%3A6969"],"infoHash":"7c1f6259e24848e17167b383ff34465f7570c81d","infoHashBuffer":{"type":"Buffer","data":[124,31,98,89,226,72,72,225,113,103,179,131,255,52,70,95,117,112,200,29]},"announce":[],"urlList":[]}}